<?xml version="1.0" encoding="utf-8"?><!-- Uploaded to: SVG Repo, www.svgrepo.com, Generator: SVG Repo Mixer Tools -->
<svg fill="#000000" width="800px" height="800px" viewBox="0 0 24 24" id="burger" data-name="Flat Line" xmlns="http://www.w3.org/2000/svg" class="icon flat-line"><path id="secondary" d="M15,5H9A4,4,0,0,0,5,9v2H19V9A4,4,0,0,0,15,5Zm4,10H5a4,4,0,0,0,4,4h6A4,4,0,0,0,19,15Z" style="fill: rgb(44, 169, 188); stroke-width: 2;"></path><path id="primary" d="M15,5H9A4,4,0,0,0,5,9v2H19V9A4,4,0,0,0,15,5Zm4,10H5a4,4,0,0,0,4,4h6A4,4,0,0,0,19,15Zm0,0H5a2,2,0,0,1-2-2H3a2,2,0,0,1,2-2H19a2,2,0,0,1,2,2h0A2,2,0,0,1,19,15Z" style="fill: none; stroke: rgb(0, 0, 0); stroke-linecap: round; stroke-linejoin: round; stroke-width: 2;"></path></svg>